{"glyphs":{":":{"x_min":0,"x_max":320,"ha":320,"o":"m 120 0 l 200 0 l 200 80 l 120 80 z m 120 520 l 200 520 l 200 600 l 120 600 z"},"$":{"x_min":0,"x_max":626,"ha":626,"o":"m 350 -8 b 484 7 586 101 586 216 b 586 309 523 399 426 433 l 350 459 l 350 728 b 394 722 429 697 441 655 l 520 679 b 507 754 433 801 350 810 l 350 880 l 290 880 l 290 809 b 276 807 261 805 247 801 b 125 766 52 660 84 551 b 102 489 150 442 212 421 l 290 394 l 290 73 b 198 82 134 144 120 214 l 40 191 b 57 85 160 0 290 -9 l 290 -80 l 350 -80 l 350 -8 z m 241 497 b 204 510 175 537 164 573 b 145 638 193 700 271 722 b 277 724 284 725 290 726 l 290 480 z m 398 357 b 462 335 501 280 501 222 b 501 152 436 89 350 75 l 350 374 z"},"?":{"x_min":0,"x_max":476,"ha":476,"o":"m 393 514 b 429 557 445 613 431 669 b 407 767 302 824 196 798 b 95 773 14 675 48 582 l 123 600 b 109 658 149 705 214 721 b 279 737 342 704 355 650 b 362 620 354 589 333 565 l 229 441 b 195 400 174 352 174 304 l 174 220 l 252 220 l 252 304 b 252 333 265 363 288 390 l 393 514 z m 254 80 l 174 80 l 174 0 l 254 0 z"},"<":{"x_min":0,"x_max":540,"ha":540,"o":"m 460 480 l 60 340 l 60 260 l 460 120 l 460 190 l 150 300 l 460 410 z"},"'":{"x_min":0,"x_max":240,"ha":240,"o":"m 110 600 l 130 600 l 160 720 l 160 800 l 80 800 l 80 720 z"},"=":{"x_min":0,"x_max":560,"ha":560,"o":"m 80 180 l 480 180 l 480 260 l 80 260 z m 80 340 l 480 340 l 480 420 l 80 420 z"},"a":{"x_min":0,"x_max":500,"ha":500,"o":"m 250 490 l 344 220 l 156 220 z m 420 0 l 500 0 l 290 600 l 210 600 l 0 0 l 80 0 l 129 140 l 371 140 z"},"L":{"x_min":0,"x_max":560,"ha":560,"o":"m 80 0 l 520 0 l 520 80 l 160 80 l 160 800 l 80 800 z"},"3":{"x_min":0,"x_max":640,"ha":640,"o":"m 247 360 l 287 360 b 381 360 457 292 457 215 b 457 138 381 70 287 70 b 235 70 188 99 157 130 l 90 85 b 136 34 207 -10 287 -10 b 425 -10 537 93 537 215 b 537 293 491 367 421 406 b 473 446 507 514 507 585 b 507 707 409 810 287 810 b 212 810 146 763 106 705 l 172 659 b 197 696 239 730 287 730 b 364 730 427 662 427 585 b 427 508 364 440 287 440 l 247 440 z"},";":{"x_min":0,"x_max":320,"ha":320,"o":"m 200 0 b 200 -66 164 -120 120 -120 l 120 -80 b 142 -80 160 -44 160 0 l 120 0 l 120 80 l 200 80 l 200 0 z m 120 520 l 200 520 l 200 600 l 120 600 z"},"J":{"x_min":0,"x_max":600,"ha":600,"o":"m 280 -10 b 413 -10 520 97 520 230 l 520 800 l 440 800 l 440 230 b 440 142 368 70 280 70 b 192 70 120 142 120 230 l 40 230 b 40 97 147 -10 280 -10 z"},"V":{"x_min":0,"x_max":640,"ha":640,"o":"m 320 110 l 80 800 l 0 800 l 280 0 l 360 0 l 640 800 l 560 800 z"},"\"":{"x_min":0,"x_max":400,"ha":400,"o":"m 270 600 l 290 600 l 320 720 l 320 800 l 240 800 l 240 720 z m 110 600 l 130 600 l 160 720 l 160 800 l 80 800 l 80 720 z"},"7":{"x_min":0,"x_max":640,"ha":640,"o":"m 590 800 l 100 800 l 100 720 l 460 720 l 100 0 l 190 0 z"},"S":{"x_min":0,"x_max":606,"ha":606,"o":"m 294 -10 b 445 -10 566 91 566 216 b 566 309 503 399 406 433 l 221 497 b 184 510 155 537 144 573 b 125 638 173 700 251 722 b 329 744 402 720 421 655 l 500 679 b 481 784 345 834 227 801 b 105 766 32 660 64 551 b 82 489 130 442 192 421 l 378 357 b 442 335 481 280 481 222 b 481 143 397 72 293 72 b 189 72 115 138 100 214 l 20 191 b 38 78 153 -10 294 -10 z"},"}":{"x_min":0,"x_max":418,"ha":418,"o":"m 260 302 b 260 334 343 390 358 400 b 343 410 260 466 260 498 l 260 673 b 260 730 240 800 80 800 b 178 756 180 726 180 673 l 180 478 b 180 448 216 415 234 400 b 216 385 180 352 180 322 l 180 127 b 180 74 178 44 80 0 b 240 0 260 70 260 127 l 260 302 z"},"Z":{"x_min":0,"x_max":660,"ha":660,"o":"m 620 80 l 145 80 l 620 720 l 620 800 l 40 800 l 40 720 l 515 720 l 40 80 l 40 0 l 620 0 z"},"x":{"x_min":0,"x_max":535,"ha":535,"o":"m 0 0 l 100 0 l 267 230 l 434 0 l 535 0 l 317 300 l 535 600 l 434 600 l 267 370 l 100 600 l 0 600 l 217 300 z"},")":{"x_min":0,"x_max":311,"ha":311,"o":"m 168 0 b 222 127 251 260 251 400 b 251 540 222 673 168 800 l 80 800 b 141 669 171 538 171 400 b 171 262 141 131 80 0 l 168 0 z"},"&":{"x_min":0,"x_max":740,"ha":740,"o":"m 310 72 b 243 66 120 98 120 200 b 120 275 196 326 280 380 l 469 165 b 429 116 370 77 310 72 z m 345 423 b 424 478 495 543 500 640 b 505 730 426 814 305 810 b 104 803 77 610 195 476 l 231 435 b 136 373 40 306 40 200 b 40 38 200 -18 310 -8 b 393 -1 471 42 524 103 l 615 0 l 720 0 l 570 169 b 606 227 635 313 650 378 l 565 378 b 555 333 537 277 513 234 l 345 423 z m 260 519 b 189 600 175 730 305 735 b 382 738 420 684 420 640 b 420 574 364 525 296 478 z"},"_":{"x_min":0,"x_max":560,"ha":560,"o":"m 80 0 l 480 0 l 480 80 l 80 80 z"},"v":{"x_min":0,"x_max":500,"ha":500,"o":"m 210 0 l 290 0 l 500 600 l 416 600 l 250 128 l 84 600 l 0 600 z"},"O":{"x_min":0,"x_max":880,"ha":880,"o":"m 760 400 b 760 218 617 70 440 70 b 263 70 120 218 120 400 b 120 582 263 730 440 730 b 617 730 760 582 760 400 z m 840 400 b 840 627 661 810 440 810 b 219 810 40 627 40 400 b 40 173 219 -10 440 -10 b 661 -10 840 173 840 400 z"},"(":{"x_min":0,"x_max":311,"ha":311,"o":"m 231 0 b 170 131 140 262 140 400 b 140 538 170 669 231 800 l 143 800 b 89 673 60 540 60 400 b 60 260 89 127 143 0 z"},"C":{"x_min":0,"x_max":730,"ha":730,"o":"m 440 810 b 219 810 40 627 40 400 b 40 173 219 -10 440 -10 b 535 -10 622 24 690 80 l 640 143 b 585 98 516 70 440 70 b 263 70 120 218 120 400 b 120 582 263 730 440 730 b 516 730 585 702 640 657 l 690 720 b 622 776 535 810 440 810 z"},"W":{"x_min":0,"x_max":1000,"ha":1000,"o":"m 540 513 l 460 513 l 320 110 l 80 800 l 0 800 l 280 0 l 360 0 l 500 400 l 640 0 l 720 0 l 1000 800 l 920 800 l 680 110 z"},"A":{"x_min":0,"x_max":640,"ha":640,"o":"m 320 690 l 456 300 l 184 300 z m 560 0 l 640 0 l 360 800 l 280 800 l 0 0 l 80 0 l 157 220 l 483 220 z"},"f":{"x_min":0,"x_max":500,"ha":500,"o":"m 160 0 l 160 260 l 410 260 l 410 340 l 160 340 l 160 520 l 440 520 l 440 600 l 80 600 l 80 0 z"},"Q":{"x_min":0,"x_max":880,"ha":880,"o":"m 731 118 b 799 191 840 291 840 400 b 840 627 661 810 440 810 b 219 810 40 627 40 400 b 40 173 219 -10 440 -10 b 528 -10 610 19 676 69 l 740 0 l 840 0 z m 622 128 b 570 91 507 70 440 70 b 263 70 120 218 120 400 b 120 582 263 730 440 730 b 617 730 760 582 760 400 b 760 314 728 236 676 177 l 600 260 l 500 260 l 622 128 z"},"w":{"x_min":0,"x_max":758,"ha":758,"o":"m 379 271 l 474 0 l 548 0 l 758 600 l 678 600 l 511 119 l 415 392 l 343 392 l 247 119 l 80 600 l 0 600 l 210 0 l 284 0 z"},"-":{"x_min":0,"x_max":520,"ha":520,"o":"m 80 280 l 440 280 l 440 360 l 80 360 z"},"E":{"x_min":0,"x_max":620,"ha":620,"o":"m 80 0 l 560 0 l 560 80 l 160 80 l 160 360 l 520 360 l 520 440 l 160 440 l 160 720 l 560 720 l 560 800 l 80 800 z"},"s":{"x_min":0,"x_max":471,"ha":471,"o":"m 227 -10 b 338 -10 431 68 431 167 b 431 241 385 310 312 333 l 179 375 b 156 382 140 400 134 422 b 123 461 150 506 200 521 b 251 536 294 517 308 467 l 387 493 b 370 590 263 627 177 602 b 85 575 28 485 53 398 b 67 349 103 311 150 296 l 282 254 b 325 240 347 204 347 170 b 347 122 295 74 226 74 b 158 74 111 118 99 181 l 20 156 b 35 56 123 -10 227 -10 z"},">":{"x_min":0,"x_max":540,"ha":540,"o":"m 80 410 l 390 300 l 80 190 l 80 120 l 480 260 l 480 340 l 80 480 z"},"l":{"x_min":0,"x_max":450,"ha":450,"o":"m 80 0 l 410 0 l 410 80 l 160 80 l 160 600 l 80 600 z"},"8":{"x_min":0,"x_max":640,"ha":640,"o":"m 150 220 b 150 297 226 370 320 370 b 414 370 490 297 490 220 b 490 143 414 70 320 70 b 226 70 150 143 150 220 z m 70 220 b 70 98 182 -10 320 -10 b 458 -10 570 98 570 220 b 570 298 524 377 454 416 b 506 456 540 519 540 590 b 540 712 442 810 320 810 b 198 810 100 712 100 590 b 100 519 134 456 186 416 b 116 377 70 298 70 220 z m 180 590 b 180 667 243 730 320 730 b 397 730 460 667 460 590 b 460 513 397 450 320 450 b 243 450 180 513 180 590 z"},"\\":{"x_min":0,"x_max":520,"ha":520,"o":"m 480 0 l 120 800 l 40 800 l 400 0 z"},"e":{"x_min":0,"x_max":500,"ha":500,"o":"m 80 0 l 440 0 l 440 80 l 160 80 l 160 260 l 410 260 l 410 340 l 160 340 l 160 520 l 440 520 l 440 600 l 80 600 z"},"b":{"x_min":0,"x_max":530,"ha":530,"o":"m 160 260 l 300 260 b 350 260 391 220 391 170 b 391 120 351 80 301 80 l 160 80 z m 160 520 l 286 520 b 336 520 376 480 376 430 b 376 380 336 340 286 340 l 160 340 z m 300 0 b 394 0 470 76 470 170 b 470 226 444 276 402 307 b 435 338 455 381 455 430 b 455 524 380 600 286 600 l 80 600 l 80 0 z"},"%":{"x_min":0,"x_max":800,"ha":800,"o":"m 512 160 b 512 209 551 248 600 248 b 649 248 688 209 688 160 b 688 111 649 72 600 72 b 551 72 512 111 512 160 z m 440 160 b 440 72 512 0 600 0 b 688 0 760 72 760 160 b 760 248 688 320 600 320 b 512 320 440 248 440 160 z m 112 640 b 112 689 151 728 200 728 b 249 728 288 689 288 640 b 288 591 249 552 200 552 b 151 552 112 591 112 640 z m 40 640 b 40 552 112 480 200 480 b 288 480 360 552 360 640 b 360 728 288 800 200 800 b 112 800 40 728 40 640 z m 620 800 l 540 800 l 180 0 l 260 0 z"},"m":{"x_min":0,"x_max":660,"ha":660,"o":"m 160 600 l 80 600 l 80 0 l 160 0 l 160 435 l 290 180 l 370 180 l 500 435 l 500 0 l 580 0 l 580 600 l 500 600 l 330 265 z"},"#":{"x_min":0,"x_max":802,"ha":802,"o":"m 507 280 l 615 520 l 755 520 l 782 580 l 642 580 l 741 800 l 661 800 l 562 580 l 402 580 l 501 800 l 421 800 l 322 580 l 182 580 l 155 520 l 295 520 l 187 280 l 47 280 l 20 220 l 160 220 l 61 0 l 141 0 l 240 220 l 400 220 l 301 0 l 381 0 l 480 220 l 620 220 l 647 280 z m 375 520 l 535 520 l 427 280 l 267 280 z"},",":{"x_min":0,"x_max":320,"ha":320,"o":"m 200 0 l 200 80 l 120 80 l 120 0 l 160 0 b 160 -44 142 -80 120 -80 l 120 -120 b 164 -120 200 -66 200 0 z"},"n":{"x_min":0,"x_max":610,"ha":610,"o":"m 160 0 l 160 460 l 450 0 l 530 0 l 530 600 l 450 600 l 450 140 l 160 600 l 80 600 l 80 0 z"},"h":{"x_min":0,"x_max":610,"ha":610,"o":"m 80 0 l 160 0 l 160 260 l 450 260 l 450 0 l 530 0 l 530 600 l 450 600 l 450 340 l 160 340 l 160 600 l 80 600 z"},"z":{"x_min":0,"x_max":520,"ha":520,"o":"m 480 80 l 150 80 l 480 520 l 480 600 l 40 600 l 40 520 l 370 520 l 40 80 l 40 0 l 480 0 z"},"B":{"x_min":0,"x_max":660,"ha":660,"o":"m 380 360 b 457 360 520 297 520 220 b 520 143 457 80 380 80 l 160 80 l 160 360 z m 360 720 b 437 720 500 657 500 580 b 500 503 437 440 360 440 l 160 440 l 160 720 z m 380 0 b 502 0 600 98 600 220 b 600 299 559 368 496 407 b 547 447 580 510 580 580 b 580 702 482 800 360 800 l 80 800 l 80 0 z"},"K":{"x_min":0,"x_max":660,"ha":660,"o":"m 660 0 l 295 443 l 590 800 l 490 800 l 160 396 l 160 800 l 80 800 l 80 0 l 160 0 l 160 279 l 246 383 l 560 0 z"},"R":{"x_min":0,"x_max":720,"ha":720,"o":"m 400 720 b 477 720 540 657 540 580 b 540 503 477 440 400 440 l 160 440 l 160 720 z m 410 360 l 590 0 l 680 0 l 492 380 b 568 415 620 491 620 580 b 620 702 522 800 400 800 l 80 800 l 80 0 l 160 0 l 160 360 z"},"T":{"x_min":0,"x_max":720,"ha":720,"o":"m 40 720 l 320 720 l 320 0 l 400 0 l 400 720 l 680 720 l 680 800 l 40 800 z"},"P":{"x_min":0,"x_max":660,"ha":660,"o":"m 400 720 b 477 720 540 657 540 580 b 540 503 477 440 400 440 l 160 440 l 160 720 z m 400 360 b 522 360 620 458 620 580 b 620 702 522 800 400 800 l 80 800 l 80 0 l 160 0 l 160 360 z"},"|":{"x_min":0,"x_max":320,"ha":320,"o":"m 120 -120 l 200 -120 l 200 920 l 120 920 z"},"t":{"x_min":0,"x_max":520,"ha":520,"o":"m 40 520 l 220 520 l 220 0 l 300 0 l 300 520 l 480 520 l 480 600 l 40 600 z"},"M":{"x_min":0,"x_max":830,"ha":830,"o":"m 160 800 l 80 800 l 80 0 l 160 0 l 160 650 l 375 290 l 455 290 l 670 650 l 670 0 l 750 0 l 750 800 l 670 800 l 415 370 z"},"g":{"x_min":0,"x_max":640,"ha":640,"o":"m 500 146 b 461 99 404 70 340 70 b 218 70 120 173 120 300 b 120 427 218 530 340 530 b 391 530 437 512 474 480 l 527 542 b 476 584 411 610 340 610 b 174 610 40 471 40 300 b 40 129 174 -10 340 -10 b 438 -10 525 39 580 113 l 580 320 l 380 320 l 380 240 l 500 240 l 500 146 z"},"j":{"x_min":0,"x_max":480,"ha":480,"o":"m 320 170 b 320 115 275 70 220 70 b 165 70 120 115 120 170 l 40 170 b 40 71 121 -10 220 -10 b 319 -10 400 71 400 170 l 400 600 l 320 600 z"},"i":{"x_min":0,"x_max":240,"ha":240,"o":"m 80 0 l 160 0 l 160 600 l 80 600 z"},"y":{"x_min":0,"x_max":560,"ha":560,"o":"m 240 255 l 240 0 l 320 0 l 320 255 l 560 600 l 460 600 l 280 341 l 100 600 l 0 600 z"},"@":{"x_min":0,"x_max":880,"ha":880,"o":"m 443 436 b 474 437 510 423 531 404 l 517 230 b 498 215 473 204 446 204 b 382 203 330 254 329 318 b 328 382 379 435 443 436 z m 462 1 b 286 -11 133 122 121 298 b 109 474 242 627 418 639 b 594 651 747 518 759 342 b 763 288 754 264 744 241 b 730 210 704 174 669 170 b 629 166 589 200 592 230 l 610 439 b 573 490 506 512 441 511 b 336 509 252 422 254 317 b 256 212 342 128 447 130 b 474 130 515 139 541 163 b 567 116 615 89 676 93 b 735 97 786 150 814 206 b 828 234 844 280 839 348 b 824 568 632 734 412 719 b 192 704 26 512 41 292 b 56 72 248 -94 468 -79 b 518 -76 565 -63 608 -43 l 574 30 b 540 14 502 4 462 1 z"},".":{"x_min":0,"x_max":320,"ha":320,"o":"m 120 0 l 200 0 l 200 80 l 120 80 z"},"p":{"x_min":0,"x_max":520,"ha":520,"o":"m 307 520 b 357 520 397 480 397 430 b 397 380 361 340 311 340 l 160 340 l 160 520 z m 310 260 b 404 260 480 336 480 430 b 480 524 405 600 311 600 l 80 600 l 80 0 l 160 0 l 160 260 z"},"X":{"x_min":0,"x_max":680,"ha":680,"o":"m 340 470 l 100 800 l 0 800 l 290 400 l 0 0 l 100 0 l 340 330 l 580 0 l 680 0 l 390 400 l 680 800 l 580 800 z"},"*":{"x_min":0,"x_max":558,"ha":558,"o":"m 279 549 l 372 421 l 421 456 l 328 584 l 478 633 l 460 690 l 309 641 l 309 800 l 249 800 l 249 641 l 98 690 l 80 633 l 230 584 l 137 456 l 186 421 z"},"Y":{"x_min":0,"x_max":720,"ha":720,"o":"m 320 340 l 320 0 l 400 0 l 400 340 l 720 800 l 620 800 l 360 430 l 100 800 l 0 800 z"},"c":{"x_min":0,"x_max":567,"ha":567,"o":"m 474 121 b 437 90 391 70 340 70 b 218 70 120 173 120 300 b 120 427 218 530 340 530 b 391 530 437 510 474 479 l 527 542 b 476 584 411 610 340 610 b 174 610 40 471 40 300 b 40 129 174 -10 340 -10 b 411 -10 476 16 527 58 l 474 121 z"},"!":{"x_min":0,"x_max":320,"ha":320,"o":"m 120 0 l 200 0 l 200 80 l 120 80 z m 120 220 l 200 220 l 200 800 l 120 800 z"},"/":{"x_min":0,"x_max":520,"ha":520,"o":"m 480 800 l 400 800 l 40 0 l 120 0 z"},"[":{"x_min":0,"x_max":380,"ha":380,"o":"m 80 0 l 320 0 l 320 80 l 160 80 l 160 720 l 320 720 l 320 800 l 80 800 z"},"6":{"x_min":0,"x_max":640,"ha":640,"o":"m 97 354 b 70 300 61 238 78 175 b 114 42 251 -38 384 -2 b 517 34 597 171 561 304 b 524 443 378 521 242 477 l 401 800 l 317 800 l 97 354 z m 483 283 b 507 192 454 99 363 75 b 272 51 179 104 155 195 b 131 286 184 380 275 404 b 366 428 459 374 483 283 z"},"r":{"x_min":0,"x_max":560,"ha":560,"o":"m 383 277 b 440 304 480 362 480 430 b 480 524 405 600 311 600 l 80 600 l 80 0 l 160 0 l 160 260 l 300 260 l 430 0 l 520 0 z m 307 520 b 357 520 397 480 397 430 b 397 380 361 340 311 340 l 160 340 l 160 520 z"},"2":{"x_min":0,"x_max":640,"ha":640,"o":"m 570 80 l 192 80 l 475 435 b 507 475 530 529 530 585 b 530 707 432 810 310 810 b 188 810 90 707 90 585 l 170 585 b 170 662 233 730 310 730 b 387 730 450 662 450 585 b 450 552 439 517 420 493 l 90 80 l 90 0 l 570 0 z"},"{":{"x_min":0,"x_max":418,"ha":418,"o":"m 158 127 b 158 70 178 0 338 0 b 240 44 238 74 238 127 l 238 322 b 238 352 202 385 184 400 b 202 415 238 448 238 478 l 238 673 b 238 726 240 756 338 800 b 178 800 158 730 158 673 l 158 498 b 158 466 75 410 60 400 b 75 390 158 334 158 302 l 158 127 z"},"9":{"x_min":0,"x_max":640,"ha":640,"o":"m 543 446 b 570 500 579 562 562 625 b 526 758 389 838 256 802 b 123 766 43 628 79 495 b 116 356 262 279 398 323 l 239 0 l 323 0 l 543 446 z m 156 516 b 132 607 185 700 276 724 b 367 748 461 695 485 604 b 509 513 455 420 364 396 b 273 372 180 425 156 516 z"}," ":{"x_min":0,"x_max":400,"ha":400,"o":""},"I":{"x_min":0,"x_max":280,"ha":280,"o":"m 100 0 l 180 0 l 180 800 l 100 800 z"},"H":{"x_min":0,"x_max":760,"ha":760,"o":"m 80 0 l 160 0 l 160 360 l 600 360 l 600 0 l 680 0 l 680 800 l 600 800 l 600 440 l 160 440 l 160 800 l 80 800 z"},"4":{"x_min":0,"x_max":640,"ha":640,"o":"m 460 0 l 460 220 l 620 220 l 620 300 l 460 300 l 460 800 l 380 800 l 20 300 l 20 220 l 380 220 l 380 0 z m 120 300 l 380 660 l 380 300 z"},"~":{"x_min":0,"x_max":520,"ha":520,"o":"m 190 300 b 231 300 260 220 330 220 b 410 220 440 290 440 350 l 381 350 b 381 320 360 300 330 300 b 290 300 260 380 190 380 b 110 380 80 310 80 250 l 139 250 b 139 280 160 300 190 300 z"},"D":{"x_min":0,"x_max":720,"ha":720,"o":"m 280 720 b 457 720 600 577 600 400 b 600 223 457 80 280 80 l 160 80 l 160 720 z m 280 0 b 501 0 680 179 680 400 b 680 621 501 800 280 800 l 80 800 l 80 0 z"},"^":{"x_min":0,"x_max":520,"ha":520,"o":"m 440 400 l 300 800 l 220 800 l 80 400 l 150 400 l 260 710 l 370 400 z"},"0":{"x_min":0,"x_max":640,"ha":640,"o":"m 130 400 b 130 577 215 730 320 730 b 425 730 510 577 510 400 b 510 223 425 70 320 70 b 215 70 130 223 130 400 z m 50 400 b 50 179 171 -10 320 -10 b 469 -10 590 179 590 400 b 590 621 469 810 320 810 b 171 810 50 621 50 400 z"},"F":{"x_min":0,"x_max":620,"ha":620,"o":"m 160 0 l 160 360 l 520 360 l 520 440 l 160 440 l 160 720 l 560 720 l 560 800 l 80 800 l 80 0 z"},"`":{"x_min":0,"x_max":350,"ha":350,"o":"m 180 870 l 270 870 l 170 970 l 80 970 z"},"k":{"x_min":0,"x_max":548,"ha":548,"o":"m 480 600 l 381 600 l 160 331 l 160 600 l 80 600 l 80 0 l 160 0 l 160 213 l 217 282 l 448 0 l 548 0 l 266 342 z"},"u":{"x_min":0,"x_max":600,"ha":600,"o":"m 440 210 b 440 133 377 70 300 70 b 223 70 160 133 160 210 l 160 600 l 80 600 l 80 210 b 80 89 178 -10 300 -10 b 422 -10 520 89 520 210 l 520 600 l 440 600 z"},"]":{"x_min":0,"x_max":380,"ha":380,"o":"m 300 800 l 60 800 l 60 720 l 220 720 l 220 80 l 60 80 l 60 0 l 300 0 z"},"U":{"x_min":0,"x_max":740,"ha":740,"o":"m 160 800 l 80 800 l 80 280 b 80 120 210 -10 370 -10 b 530 -10 660 120 660 280 l 660 800 l 580 800 l 580 280 b 580 164 486 70 370 70 b 254 70 160 164 160 280 z"},"o":{"x_min":0,"x_max":680,"ha":680,"o":"m 120 300 b 120 427 218 530 340 530 b 462 530 560 427 560 300 b 560 173 462 70 340 70 b 218 70 120 173 120 300 z m 40 300 b 40 129 174 -10 340 -10 b 506 -10 640 129 640 300 b 640 471 506 610 340 610 b 174 610 40 471 40 300 z"},"N":{"x_min":0,"x_max":760,"ha":760,"o":"m 160 0 l 160 660 l 600 0 l 680 0 l 680 800 l 600 800 l 600 140 l 160 800 l 80 800 l 80 0 z"},"+":{"x_min":0,"x_max":560,"ha":560,"o":"m 320 120 l 320 280 l 480 280 l 480 360 l 320 360 l 320 520 l 240 520 l 240 360 l 80 360 l 80 280 l 240 280 l 240 120 z"},"G":{"x_min":0,"x_max":820,"ha":820,"o":"m 440 -10 b 571 -10 687 54 760 154 l 760 400 l 520 400 l 520 320 l 680 320 l 680 182 b 621 114 536 70 440 70 b 263 70 120 218 120 400 b 120 582 263 730 440 730 b 516 730 585 702 640 657 l 690 720 b 622 776 535 810 440 810 b 219 810 40 627 40 400 b 40 173 219 -10 440 -10 z"},"q":{"x_min":0,"x_max":680,"ha":680,"o":"m 120 300 b 120 427 218 530 340 530 b 462 530 560 427 560 300 b 560 241 539 188 504 147 l 437 220 l 336 220 l 448 99 b 416 80 379 70 340 70 b 218 70 120 173 120 300 z m 40 300 b 40 129 174 -10 340 -10 b 400 -10 456 9 503 40 l 540 0 l 640 0 l 559 88 b 609 143 640 218 640 300 b 640 471 506 610 340 610 b 174 610 40 471 40 300 z"},"d":{"x_min":0,"x_max":590,"ha":590,"o":"m 250 520 b 372 520 470 422 470 300 b 470 178 372 80 250 80 l 160 80 l 160 520 z m 250 0 b 416 0 550 134 550 300 b 550 466 416 600 250 600 l 80 600 l 80 0 z"},"1":{"x_min":0,"x_max":640,"ha":640,"o":"m 220 720 l 300 720 l 300 0 l 380 0 l 380 800 l 220 800 z"},"5":{"x_min":0,"x_max":640,"ha":640,"o":"m 303 420 b 376 420 442 365 462 291 b 486 200 433 100 342 76 b 265 55 187 94 150 160 l 80 121 b 134 23 250 -31 363 -1 b 496 35 576 179 540 312 b 511 422 412 500 303 500 l 246 500 l 314 720 l 520 720 l 520 800 l 256 800 l 135 420 z"}}}
